<?xml version="1.0" encoding="utf-8"?>
<!-- Generator: Adobe Illustrator 24.3.0, SVG Export Plug-In . SVG Version: 6.00 Build 0)  -->
<svg version="1.1" id="Layer_1" xmlns="http://www.w3.org/2000/svg" xmlns:xlink="http://www.w3.org/1999/xlink" x="0px" y="0px"
	 viewBox="0 0 729.1 395.6" style="enable-background:new 0 0 729.1 395.6;" xml:space="preserve">
<style type="text/css">
	.st0{fill:#74B2CD;}
</style>
<path class="st0" d="M698.6,61.5c-13.2-16.5-32.1-28.4-56.5-35.9c-11.3-3.3-22.9-5.6-34.7-6.9c-15.1-1.6-30.2-2.4-45.4-2.3H458.6
	v230.2c-0.6,7.6-12.7,39.5-20.7,52.3c-5.7,9.2-6.4,10.3-11.7,15c-6.2-6.4-12.2-12.6-17.8-18.4s-10.6-10.9-15-15.4
	c4.6-2.8,9-5.9,13.2-9.1c4.1-3.2,7.8-6.8,11.1-10.7c3.2-4,5.8-8.4,7.6-13.2c1.9-5.3,2.9-10.8,2.8-16.5c0.1-6.2-1.2-12.4-3.7-18.1
	c-2.5-5.1-6.1-9.6-10.7-13.1c-5-3.7-10.8-6.4-16.8-8c-7.3-1.9-14.8-2.7-22.3-2.7c-7.5-0.1-15.1,0.9-22.3,3
	c-6.1,1.7-11.7,4.6-16.7,8.5c-4.5,3.7-8.1,8.4-10.4,13.7c-4,9.9-4.7,20.8-1.8,31.1c1.2,4,2.9,7.8,5,11.4c2.2,3.7,4.7,7.1,7.5,10.3
	c3,3.4,6.1,6.6,9.5,9.9c-4.5,2.8-8.9,5.8-13.1,9.1c-2.8,2.1-5.4,4.5-7.8,7.2L214.6,16.5h-60L12.4,374.9h69.9l35.1-91.4h134.9
	l35.1,91.4h78.2c10.2,0,20.3-1.5,30.1-4.3c10-2.9,19.4-7.4,27.9-13.3c3.1,3.4,5.6,6.2,7.5,8.2s7.5,7.5,9,9.5h84V234.8
	c5,0.6,10.4,0.9,16.1,1.1s11.6,0.2,17.4,0.2c25.7,0,48.4-2.6,68.3-7.8s36.6-12.6,50.4-22.2c13.8-9.6,24.2-21.3,31.4-35.2
	s10.7-29.4,10.7-46.7C718.4,98.9,711.8,78,698.6,61.5z M138.6,228.7l12.2-31.9c9.8-25.1,21-56.5,33.6-94h1.1
	c12.6,37.3,23.7,68.6,33.5,94l12.2,31.9H138.6z M355.7,225.3c0.9-2.1,2.3-3.9,4-5.3c1.9-1.6,4.1-2.8,6.4-3.6c2.8-1,5.8-1.4,8.8-1.4
	c6.5,0,11.6,1.6,15.2,4.7c3.6,3.1,5.5,7.7,5.3,12.4c0,2.9-0.5,5.8-1.7,8.5c-1.2,2.7-2.7,5.2-4.6,7.4c-2,2.5-4.4,4.7-6.9,6.6
	c-2.7,2.1-5.6,4-8.7,6c-3-2.8-5.6-5.3-8-7.6c-2.2-2.2-4.2-4.5-6-6.9c-1.6-2.1-2.8-4.4-3.7-6.9c-0.9-2.4-1.3-4.9-1.3-7.5
	C354.3,229.5,354.8,227.3,355.7,225.3L355.7,225.3z M387.2,346.1c-6,1.9-12.3,2.8-18.6,2.8c-3.3,0-6.6-0.4-9.8-1.4
	c-2.9-0.9-5.6-2.3-8-4.3c-2.3-1.9-4.2-4.3-5.5-6.9c-1.4-3.1-2.1-6.4-2-9.8c-0.1-3.1,0.5-6.1,1.7-9c1.1-2.8,2.7-5.4,4.6-7.8
	c2-2.5,4.3-4.8,6.9-6.9c2.8-2.2,5.7-4.3,8.8-6.2c2.8,3,5.9,6.1,9.1,9.4c3.3,3.2,6.6,6.6,10,10.1s6.9,7,10.3,10.6l10.4,10.6
	C399.6,341.3,393.6,344.2,387.2,346.1z M446.5,335.3c4.9-6.6,8.9-13.7,12.1-21.3v33.8C454.9,343.9,450.7,339.7,446.5,335.3z
	 M645.9,146.6c-3.5,7.5-9,13.9-15.9,18.5c-7.3,5-17,9.1-29,11.9s-26.8,4.3-44.4,4.3c-6.2,0-12.3-0.1-18.1-0.4s-10.6-0.7-14.4-1.2
	V71.4h37c11.3-0.1,22.6,0.4,33.8,1.4c7.9,0.7,15.6,2.3,23.2,4.7c12,4.3,20.4,10.3,25.2,17.9s7.2,16.8,7.2,27.4
	C650.7,131,649.1,139.1,645.9,146.6z"/>
</svg>
