<svg id="Layer_1" data-name="Layer 1" xmlns="http://www.w3.org/2000/svg" viewBox="0 0 217 217"><defs><style>.cls-1{fill:#fefefe;}.cls-2{fill:#5799c9;}.cls-3{fill:#f4a152;}.cls-4{fill:#e56581;}.cls-5{fill:#f9f8fa;}.cls-6{fill:#fdf7f6;}</style></defs><path class="cls-1" d="M-8.9-8.9Q97.5-8.9,203.91-9c3.42,0,4.1.67,4.09,4.09q-.19,104.42,0,208.82c0,3.42-.67,4.1-4.09,4.09Q99.5,207.81-4.91,208c-3.42,0-4.1-.67-4.09-4.09Q-8.8,97.5-8.9-8.9Z" transform="translate(9 9)"/><path class="cls-2" d="M145,100.21c9.11,8.45,14.94,18.59,16.16,31.14a45.45,45.45,0,0,1-34.95,49.08c-24.4,5.86-49.45-10-54.51-34.5,3-2.39,6.6-1.28,9.94-1.43a82.49,82.49,0,0,1,8.32-.12c1.78.27,2.17,1.84,2.9,3.11,6.43,11.22,16.77,16.23,28.34,13.73,11.19-2.42,19.43-11.45,20.42-22.39,1.09-12.05-5-21.67-17.08-26.89a25.17,25.17,0,0,0-18.41.23c-5.86,1.94-9.34,6.61-12.83,11.26-.89,1.18-1.42,2.63-2.7,3.53-6.31,2.89-12.62,4.06-18.9-.08-1.53-2.83-.38-5.49.68-8.07A50.78,50.78,0,0,1,86.44,99.33,51.16,51.16,0,0,1,106.59,90a39.89,39.89,0,0,1,17.63-.23,9.2,9.2,0,0,1,1.55.29,51.5,51.5,0,0,1,15.1,6.14C142.52,97.19,144.5,98,145,100.21Z" transform="translate(9 9)"/><path class="cls-3" d="M145,100.21a66.12,66.12,0,0,0-19.36-9.28c.36-2.38,2.57-2.89,4.14-4,12.66-8.62,15.9-25.4,7-36.61-10.36-13.09-27-14.61-38.89-3.52C95,49.5,93.4,53,91.88,56.5a23.39,23.39,0,0,0,.66,18.73c2,6.83,7.39,10.49,13,14,.5.54,1,1.09.48,1.88a63.42,63.42,0,0,0-19,9.14c-4.41-.74-6.47-4.41-8.84-7.47a47.5,47.5,0,0,1-8.35-18.5C68.77,68.13,67.34,62,71,56.14c3.7-14.85,11.91-26,26-32.65,28-13.2,61.48,6,64.12,36.9C162.5,76.44,157.11,89.67,145,100.21Z" transform="translate(9 9)"/><path class="cls-4" d="M71,56.14a61.5,61.5,0,0,0,0,19.15c-.65,1.48-2.06,2.08-3.3,2.89C49.57,89.91,50.2,113.29,68.9,124a6.42,6.42,0,0,1,2.69,2.11c6.56,3.14,13,2.31,19.46-.43a69.45,69.45,0,0,0,14.06-14.33,22.45,22.45,0,0,1,19.82-.49c1.26,1.36.64,2.84.13,4.2-5.28,14.27-14.6,24.66-29.06,30.05-1.73.64-3.48,1.16-5.29.24-6.3,1.39-12.67.73-19,.59-10.67-2.9-20-7.93-27-16.8A45.73,45.73,0,0,1,71,56.14Z" transform="translate(9 9)"/><path class="cls-1" d="M90.82,56.14a26.57,26.57,0,0,1,25.34-18.08,27.92,27.92,0,0,1,25.76,19.32A27,27,0,0,1,132,87c-2,1.44-4.22,2.61-6.34,3.91l-.36,0c-1.61-.85-2.19-2.39-2.75-4-5-14-14.38-23.5-28.44-28.37C92.77,58.17,91,58.19,90.82,56.14Z" transform="translate(9 9)"/><path class="cls-1" d="M90.71,145.34c18.09-4.87,29.33-16.53,34.22-34.49,12.22,4.14,19.44,15.68,17.95,28.71-1.34,11.7-11.43,21.87-23.18,23.34C106.68,164.54,94.91,157.41,90.71,145.34Z" transform="translate(9 9)"/><path class="cls-1" d="M71.59,126.1c-10.21-3.17-15.88-10.35-17.71-20.61-2-11,1.88-19.85,10.6-26.6,1.94-1.49,4.32-2.41,6.49-3.6,3.2,9.69,7.76,18.5,16,24.95C79.4,107.4,73.65,115.66,71.59,126.1Z" transform="translate(9 9)"/><path class="cls-4" d="M90.82,56.14c18,5.17,29.26,17,34.44,34.82A71.06,71.06,0,0,0,106,91.1l-1.12-1.2c-3.23-5.55-8.56-9.14-12.84-13.72C87.79,69.73,87.91,63,90.82,56.14Z" transform="translate(9 9)"/><path class="cls-5" d="M105.11,111.34c-2.44,7-7.33,11.56-14.06,14.33C93.68,118.87,98.59,114.32,105.11,111.34Z" transform="translate(9 9)"/><path class="cls-6" d="M92,76.18c5.79,3.16,10.83,7,12.84,13.72C98.93,86.88,93.58,83.31,92,76.18Z" transform="translate(9 9)"/></svg>