<svg id="Layer_1" data-name="Layer 1" xmlns="http://www.w3.org/2000/svg" viewBox="0 0 120.78 117.79"><defs><style>.cls-1,.cls-2{fill:#231e1b;}.cls-1{fill-rule:evenodd;}</style></defs><path class="cls-1" d="M61.17,1.57A60.39,60.39,0,0,0,42.08,119.26c3,.56,4.12-1.31,4.12-2.91,0-1.43-.05-6.19-.08-11.24C29.32,108.76,25.77,98,25.77,98c-2.74-7-6.7-8.84-6.7-8.84-5.48-3.75.41-3.67.41-3.67,6.07.43,9.26,6.22,9.26,6.22,5.38,9.23,14.13,6.57,17.57,5,.54-3.9,2.11-6.56,3.84-8.07C36.73,87.12,22.63,81.94,22.63,58.8a23.35,23.35,0,0,1,6.23-16.21c-.63-1.52-2.7-7.66.58-16,0,0,5.07-1.62,16.61,6.19a57.32,57.32,0,0,1,30.24,0C87.82,25,92.88,26.61,92.88,26.61c3.29,8.32,1.22,14.46.6,16A23.34,23.34,0,0,1,99.69,58.8c0,23.2-14.13,28.3-27.57,29.8,2.16,1.87,4.09,5.55,4.09,11.18,0,8.08-.07,14.59-.07,16.57,0,1.61,1.09,3.49,4.15,2.9A60.4,60.4,0,0,0,61.17,1.57Z" transform="translate(-0.78 -1.57)"/><path class="cls-2" d="M23.65,88.27c-.13.3-.61.39-1,.19s-.69-.61-.55-.91.61-.39,1-.19.69.61.54.91Zm-.74-.55" transform="translate(-0.78 -1.57)"/><path class="cls-2" d="M26.1,91c-.29.27-.86.14-1.24-.28s-.47-1-.17-1.25.84-.14,1.23.28.48,1,.18,1.25Zm-.58-.62" transform="translate(-0.78 -1.57)"/><path class="cls-2" d="M28.48,94.48c-.37.26-1,0-1.35-.52s-.37-1.18,0-1.44,1,0,1.35.51.37,1.19,0,1.45Zm0,0" transform="translate(-0.78 -1.57)"/><path class="cls-2" d="M31.74,97.84c-.33.37-1,.27-1.55-.23s-.68-1.18-.35-1.54,1.05-.27,1.57.23.68,1.18.33,1.54Zm0,0" transform="translate(-0.78 -1.57)"/><path class="cls-2" d="M36.24,99.79c-.15.47-.83.69-1.51.49s-1.13-.76-1-1.24.82-.7,1.51-.49,1.13.76,1,1.24Zm0,0" transform="translate(-0.78 -1.57)"/><path class="cls-2" d="M41.18,100.15c0,.5-.56.91-1.28.92s-1.31-.38-1.31-.87.56-.92,1.28-.93,1.31.39,1.31.88Zm0,0" transform="translate(-0.78 -1.57)"/><path class="cls-2" d="M45.78,99.37c.09.49-.41,1-1.13,1.12s-1.35-.17-1.44-.66.43-1,1.13-1.12,1.35.17,1.44.66Zm0,0" transform="translate(-0.78 -1.57)"/></svg>