<?xml version="1.0" encoding="utf-8"?>
<!-- Generator: Adobe Illustrator 24.3.0, SVG Export Plug-In . SVG Version: 6.00 Build 0)  -->
<svg version="1.1" id="Layer_1" xmlns="http://www.w3.org/2000/svg" xmlns:xlink="http://www.w3.org/1999/xlink" x="0px" y="0px"
	 viewBox="0 0 469.7 117.8" style="enable-background:new 0 0 469.7 117.8;" xml:space="preserve">
<g id="githubLogo-viewtextCONT2">
	<path d="M41.8,38.1L22.5,81.5h-3.2L0,38.1h3.5L21,77.4l17.5-39.3C38.5,38.1,41.8,38.1,41.8,38.1z"/>
	<path d="M47.2,40.6c-0.5-0.5-0.7-1.1-0.7-1.8s0.2-1.3,0.7-1.8s1.1-0.7,1.8-0.7s1.3,0.2,1.8,0.7s0.7,1.1,0.7,1.8s-0.2,1.3-0.7,1.8
		s-1.1,0.7-1.8,0.7C48.3,41.3,47.7,41,47.2,40.6z M47.5,49.1h3.1v32.4h-3.1V49.1z"/>
	<path d="M91,66.1H63.2c0.1,2.5,0.7,4.8,1.9,6.7c1.2,2,2.8,3.5,4.9,4.6c2,1.1,4.3,1.6,6.9,1.6c2.1,0,4.1-0.4,5.9-1.1
		c1.8-0.8,3.3-1.9,4.5-3.4l1.8,2c-1.4,1.7-3.2,3-5.3,3.9s-4.4,1.4-6.9,1.4c-3.2,0-6.1-0.7-8.6-2.1s-4.5-3.3-5.9-5.8
		s-2.1-5.3-2.1-8.5c0-3.1,0.7-6,2-8.5s3.2-4.5,5.5-5.9c2.4-1.4,5-2.1,7.9-2.1s5.6,0.7,7.9,2.1c2.3,1.4,4.2,3.3,5.5,5.8s2,5.3,2,8.4
		L91,66.1z M69.5,53.1c-1.8,1-3.3,2.4-4.4,4.3c-1.1,1.8-1.7,3.9-1.9,6.2H88c-0.1-2.3-0.7-4.4-1.9-6.2c-1.1-1.8-2.6-3.2-4.4-4.3
		c-1.8-1-3.9-1.5-6.1-1.5C73.3,51.6,71.3,52.1,69.5,53.1z"/>
	<path d="M146.3,49.1L134,81.5h-2.9l-10.9-28.1l-11,28.1h-2.9L94,49.1h3L107.8,78l11-28.9h2.7l11,28.8l10.9-28.8
		C143.4,49.1,146.3,49.1,146.3,49.1z"/>
	<path d="M173.8,79.6c-2.5-1.4-4.4-3.4-5.8-5.9s-2.1-5.3-2.1-8.5c0-3.1,0.7-6,2.1-8.5s3.3-4.5,5.8-5.9s5.2-2.1,8.3-2.1
		s5.8,0.7,8.3,2.1c2.5,1.4,4.4,3.4,5.8,5.9s2.1,5.3,2.1,8.5c0,3.1-0.7,6-2.1,8.5s-3.3,4.5-5.8,5.9s-5.2,2.1-8.3,2.1
		S176.2,81,173.8,79.6z M188.7,77.2c2-1.2,3.5-2.8,4.7-4.8c1.1-2.1,1.7-4.4,1.7-7.1s-0.6-5-1.7-7.1s-2.7-3.7-4.7-4.8
		c-2-1.2-4.2-1.7-6.7-1.7s-4.7,0.6-6.7,1.7c-2,1.2-3.5,2.8-4.6,4.8c-1.1,2.1-1.7,4.4-1.7,7.1s0.6,5,1.7,7.1s2.7,3.7,4.6,4.8
		c2,1.2,4.2,1.7,6.7,1.7C184.5,79,186.8,78.4,188.7,77.2z"/>
	<path d="M233.3,52.4c2.4,2.4,3.5,5.7,3.5,10.2v18.9h-3.1V62.8c0-3.6-0.9-6.4-2.8-8.3c-1.8-1.9-4.4-2.9-7.7-2.9
		c-3.8,0-6.8,1.1-9,3.4c-2.2,2.3-3.3,5.3-3.3,9.2v17.2h-3.1V49.1h3v7c1.1-2.3,2.8-4.1,5-5.3c2.2-1.3,4.8-1.9,7.8-1.9
		C227.7,48.9,230.9,50.1,233.3,52.4z"/>
	<path d="M297.5,60h3v16.2c-1.9,1.8-4.2,3.2-6.9,4.2c-2.7,1-5.6,1.4-8.6,1.4c-4.3,0-8.2-1-11.6-2.9c-3.5-1.9-6.2-4.5-8.1-7.9
		c-2-3.3-2.9-7.1-2.9-11.3s1-7.9,2.9-11.3c2-3.3,4.7-6,8.1-7.9c3.5-1.9,7.3-2.9,11.7-2.9c3.2,0,6.1,0.5,8.8,1.5c2.7,1,5,2.5,6.9,4.4
		l-2,2.1c-1.8-1.8-3.9-3.1-6.1-3.9c-2.3-0.8-4.7-1.2-7.5-1.2c-3.7,0-7.1,0.8-10.1,2.5s-5.3,3.9-7,6.9c-1.7,2.9-2.5,6.2-2.5,9.8
		s0.9,6.8,2.6,9.7s4.1,5.2,7,6.9c3,1.7,6.3,2.5,10,2.5c5,0,9.1-1.3,12.3-4L297.5,60L297.5,60z"/>
	<path d="M313.2,40.6c-0.5-0.5-0.7-1.1-0.7-1.8s0.2-1.3,0.7-1.8s1.1-0.7,1.8-0.7c0.7,0,1.3,0.2,1.8,0.7s0.7,1.1,0.7,1.8
		s-0.2,1.3-0.7,1.8s-1.1,0.7-1.8,0.7S313.7,41,313.2,40.6z M313.4,49.1h3.1v32.4h-3.1V49.1z"/>
	<path d="M345.7,79.5c-0.8,0.7-1.8,1.3-2.9,1.7c-1.2,0.4-2.4,0.6-3.7,0.6c-2.8,0-5-0.8-6.5-2.3s-2.3-3.7-2.3-6.5V51.8h-6v-2.7h6V42
		h3.1v7.1h10.2v2.7h-10.3v20.8c0,2.1,0.5,3.7,1.5,4.8s2.5,1.6,4.5,1.6s3.7-0.6,5-1.8L345.7,79.5z"/>
	<path d="M379.7,52.4c2.4,2.4,3.5,5.7,3.5,10.2v18.9h-3.1V62.8c0-3.6-0.9-6.4-2.8-8.3c-1.8-1.9-4.4-2.9-7.7-2.9
		c-3.8,0-6.8,1.1-9,3.4c-2.2,2.3-3.3,5.3-3.3,9.2v17.2h-3.1v-46h3.1v20.4c1.1-2.2,2.8-4,5-5.2s4.8-1.8,7.8-1.8
		C374.2,48.9,377.4,50.1,379.7,52.4z"/>
	<path d="M424.4,49.1v32.4h-3v-6.9c-1.1,2.3-2.7,4-4.8,5.3s-4.6,1.9-7.4,1.9c-4.2,0-7.5-1.2-9.9-3.5c-2.4-2.4-3.6-5.7-3.6-10.2v-19
		h3.1v18.7c0,3.6,0.9,6.4,2.8,8.3c1.9,1.9,4.5,2.9,7.9,2.9c3.6,0,6.5-1.1,8.6-3.4s3.2-5.3,3.2-9.2V49.1H424.4z"/>
	<path d="M461.9,51c2.4,1.4,4.3,3.3,5.7,5.8s2.1,5.3,2.1,8.5s-0.7,6-2.1,8.5c-1.4,2.5-3.3,4.4-5.7,5.8s-5.2,2.1-8.2,2.1
		c-2.9,0-5.5-0.7-7.8-2.1s-4.1-3.3-5.4-5.8v7.6h-3v-46h3.1v21c1.3-2.4,3.1-4.3,5.4-5.6c2.3-1.3,4.9-2,7.8-2
		C456.8,48.9,459.5,49.6,461.9,51z M460.3,77.2c2-1.2,3.5-2.8,4.7-4.8c1.1-2.1,1.7-4.4,1.7-7.1s-0.6-5-1.7-7.1
		c-1.1-2.1-2.7-3.7-4.7-4.8c-2-1.2-4.2-1.7-6.7-1.7s-4.7,0.6-6.7,1.7c-2,1.2-3.5,2.8-4.6,4.8c-1.1,2.1-1.7,4.4-1.7,7.1
		s0.6,5,1.7,7.1c1.1,2.1,2.7,3.7,4.6,4.8c2,1.2,4.2,1.7,6.7,1.7C456,79,458.3,78.4,460.3,77.2z"/>
</g>
</svg>
